<?xml version="1.0" standalone="no"?>
<!DOCTYPE svg PUBLIC "-//W3C//DTD SVG 20010904//EN"
 "http://www.w3.org/TR/2001/REC-SVG-20010904/DTD/svg10.dtd">
<svg version="1.0" xmlns="http://www.w3.org/2000/svg"
 width="753.000000pt" height="753.000000pt" viewBox="0 0 753.000000 753.000000"
 preserveAspectRatio="xMidYMid meet">
<metadata>
Created by potrace 1.11, written by Peter Selinger 2001-2013
</metadata>
<g transform="translate(0.000000,753.000000) scale(0.100000,-0.100000)"
fill="#000000" stroke="none">
<path d="M2135 5724 c-506 -79 -939 -421 -1200 -950 -153 -310 -218 -593 -218
-954 0 -370 63 -673 202 -965 104 -218 234 -397 412 -570 215 -207 445 -335
717 -397 l97 -22 1510 -4 c1106 -2 1534 0 1600 8 322 42 649 211 890 461 149
154 233 274 329 466 107 216 174 419 213 652 25 148 25 528 -1 691 -56 358
-189 690 -378 941 -251 333 -564 542 -943 632 -90 21 -98 21 -1615 23 -1267 2
-1540 0 -1615 -12z m1656 -137 c79 -41 110 -137 69 -217 -28 -55 -72 -83 -139
-88 -65 -4 -109 19 -148 77 -39 58 -28 156 23 203 58 52 126 61 195 25z m1835
-146 c57 -26 87 -72 92 -140 3 -46 0 -62 -20 -90 -40 -59 -72 -76 -141 -76
-74 0 -116 25 -147 85 -41 80 -10 178 70 218 54 27 92 28 146 3z m-3744 -21
c45 -13 103 -78 112 -125 21 -109 -85 -212 -196 -191 -83 15 -132 75 -132 161
0 67 32 121 88 146 47 21 76 23 128 9z m3091 -275 c172 -26 375 -105 519 -202
239 -162 430 -409 517 -668 185 -554 71 -1056 -333 -1461 -190 -189 -394 -298
-661 -351 -84 -17 -176 -18 -1295 -18 -1310 0 -1263 -2 -1450 57 -488 154
-827 551 -921 1078 -21 119 -16 374 10 497 57 272 173 491 365 691 63 66 222
188 308 235 126 71 298 128 440 146 35 5 590 9 1233 10 988 1 1185 -1 1268
-14z m-3866 -1191 c53 -40 68 -71 68 -139 0 -68 -15 -99 -67 -138 -35 -26
-114 -33 -159 -14 -70 29 -115 124 -95 201 8 34 54 86 91 102 41 20 129 13
162 -12z m5362 6 c114 -57 115 -225 3 -288 -126 -70 -277 45 -241 183 28 104
142 155 238 105z m-4573 -1479 c125 -57 133 -230 13 -291 -132 -68 -278 46
-239 187 28 99 131 147 226 104z m3734 -11 c55 -28 83 -72 88 -139 3 -46 0
-62 -20 -90 -34 -50 -71 -73 -125 -78 -135 -13 -224 118 -161 236 43 81 138
112 218 71z m-1802 -169 c39 -27 72 -88 72 -131 0 -17 -7 -47 -15 -68 -68
-163 -316 -114 -315 63 1 103 70 169 171 163 37 -3 66 -11 87 -27z"/>
<path d="M3695 4250 c-231 -3 -425 -8 -432 -13 -11 -7 -53 -166 -53 -201 0
-28 66 -21 87 10 10 14 32 43 50 63 l31 36 111 3 111 4 0 -336 c0 -373 4 -349
-69 -388 -24 -13 -32 -24 -29 -40 3 -23 4 -23 202 -26 117 -1 204 2 209 7 17
17 -1 61 -26 61 -12 0 -33 7 -45 16 l-22 15 0 345 0 344 53 2 c133 4 186 -15
228 -84 13 -22 33 -43 44 -48 25 -9 67 9 61 27 -3 7 -13 50 -22 96 -18 88 -25
103 -52 108 -9 2 -206 2 -437 -1z"/>
<path d="M2702 4218 c3 -29 7 -33 45 -41 26 -5 47 -16 53 -27 6 -12 9 -100 8
-231 l-3 -212 -150 179 c-185 220 -227 269 -272 317 l-36 37 -139 0 c-139 0
-139 0 -136 -22 2 -14 15 -28 33 -36 17 -7 37 -17 45 -21 13 -7 15 -57 18
-340 1 -218 -1 -339 -8 -351 -6 -11 -26 -26 -44 -34 -33 -14 -53 -46 -41 -66
4 -6 66 -10 156 -10 l149 0 0 30 c0 31 -22 50 -59 50 -11 0 -25 9 -31 19 -11
21 -15 523 -4 534 4 3 16 -6 28 -21 11 -15 74 -90 140 -167 65 -77 174 -206
242 -287 69 -81 133 -152 144 -158 10 -5 32 -10 49 -10 l30 0 3 399 c2 220 6
402 10 406 3 4 24 13 45 20 32 11 38 18 38 42 l0 28 -158 3 -158 3 3 -33z"/>
<path d="M4366 4234 c-9 -23 10 -51 41 -59 55 -13 53 -2 53 -371 l0 -343 -22
-15 c-12 -9 -30 -16 -40 -16 -20 0 -36 -46 -21 -61 5 -5 89 -8 199 -7 181 3
189 4 189 23 0 13 -17 31 -47 50 l-47 30 0 153 -1 152 173 -2 172 -3 3 -136
c3 -163 -3 -183 -55 -196 -28 -6 -39 -14 -41 -30 -6 -38 25 -44 215 -41 l178
3 0 30 c0 26 -5 31 -38 40 -21 6 -42 17 -47 25 -6 9 -10 161 -10 348 0 319 1
333 20 352 11 11 28 20 38 20 11 0 24 11 30 25 18 39 -7 45 -207 45 l-181 0 0
-22 c0 -31 10 -44 40 -53 14 -4 30 -12 37 -17 16 -13 27 -144 18 -223 l-7 -65
-169 0 -169 0 0 138 c0 122 2 141 18 155 10 10 28 17 40 17 23 0 40 39 27 59
-4 7 -73 11 -195 11 -162 0 -189 -2 -194 -16z"/>
</g>
</svg>
